<svg width="1024" height="1024" viewBox="0 0 1024 1024" fill="none" xmlns="http://www.w3.org/2000/svg">
<path d="M15.1101 511.995C15.1101 786.417 237.573 1008.88 511.995 1008.88C786.417 1008.88 1008.88 786.417 1008.88 511.995C1008.88 237.573 786.417 15.11 511.995 15.11C237.573 15.11 15.1101 237.573 15.1101 511.995Z" fill="url(#paint0_radial_296_497)"/>
<path d="M325.72 215.97C333.12 235.5 331.57 257.35 270.97 277.15C232.72 289.65 190.77 291.25 183.37 271.72C175.97 252.19 206.53 220.67 244.17 206.41C281.81 192.15 318.31 196.43 325.71 215.96L325.72 215.97Z" fill="#FFD41F"/>
<path d="M330.97 661.69C394.864 661.69 446.66 589.724 446.66 500.95C446.66 412.176 394.864 340.21 330.97 340.21C267.076 340.21 215.28 412.176 215.28 500.95C215.28 589.724 267.076 661.69 330.97 661.69Z" fill="#F9F4ED"/>
<path d="M357.54 418.28C352.95 418.28 348.51 419.18 344.23 420.71C350.3 427.46 354.1 436.31 354.1 446.11C354.1 467.17 337.03 484.25 315.96 484.25C311.19 484.25 306.67 483.27 302.46 481.67C301.19 488.75 300.46 496.15 300.46 503.83C300.46 551.08 326.02 589.38 357.54 589.38C389.06 589.38 414.62 551.08 414.62 503.83C414.62 456.58 389.06 418.28 357.54 418.28Z" fill="black"/>
<path d="M713.66 208.49C706.26 228.02 707.81 249.87 768.41 269.67C806.66 282.17 848.61 283.77 856.01 264.24C863.41 244.71 832.85 213.19 795.21 198.93C757.57 184.67 721.07 188.95 713.67 208.48L713.66 208.49Z" fill="#FFD41F"/>
<path d="M708.21 654.2C772.104 654.2 823.9 582.234 823.9 493.46C823.9 404.686 772.104 332.72 708.21 332.72C644.316 332.72 592.52 404.686 592.52 493.46C592.52 582.234 644.316 654.2 708.21 654.2Z" fill="#F9F4ED"/>
<path d="M681.67 410.79C677.08 410.79 672.64 411.69 668.36 413.22C674.43 419.97 678.23 428.82 678.23 438.62C678.23 459.68 661.16 476.76 640.09 476.76C635.32 476.76 630.8 475.78 626.59 474.18C625.32 481.26 624.59 488.66 624.59 496.34C624.59 543.59 650.15 581.89 681.67 581.89C713.19 581.89 738.75 543.59 738.75 496.34C738.75 449.09 713.19 410.79 681.67 410.79Z" fill="black"/>
<path d="M622.29 646.57C626.81 751.63 568.36 822.87 526.22 822.48C484.3 822.09 427.49 750.53 432.68 646.57L527.48 614.09L622.28 646.57H622.29Z" fill="#AF1932"/>
<path d="M418.67 715.7C413.48 606.5 480.52 532.44 528.84 532.85C576.91 533.25 642.06 607.64 636.11 715.7L527.39 749.46L418.67 715.7Z" fill="#D32036"/>
<path d="M437.5 603.67C430.62 610.12 419.19 604.14 421.08 595.04C431.62 544.32 485.92 519.23 527.37 519.45C568.6 519.67 623.56 544.96 633.8 595.27C635.65 604.35 624.23 610.29 617.37 603.85L617.21 603.7C594.63 582.52 560.02 553.58 525.8 553.85C492.47 554.12 459.51 583.05 437.5 603.67Z" fill="#F5E0C3"/>
<path d="M480.79 613.75C483.45 610.43 496.53 588.86 525.59 589.63C551.88 590.33 570.68 610.17 573.97 614.42L480.79 613.75Z" fill="#FF0033"/>
<defs>
<radialGradient id="paint0_radial_296_497" cx="0" cy="0" r="1" gradientUnits="userSpaceOnUse" gradientTransform="translate(512 512) scale(496.89)">
<stop stop-color="#FF0033"/>
<stop offset="0.11" stop-color="#FF1F30"/>
<stop offset="0.34" stop-color="#FF5F2A"/>
<stop offset="0.54" stop-color="#FF8D25"/>
<stop offset="0.69" stop-color="#FFAA23"/>
<stop offset="0.78" stop-color="#FFB522"/>
</radialGradient>
</defs>
</svg>
