<svg width="162" height="162" viewBox="0 0 162 162" fill="none" xmlns="http://www.w3.org/2000/svg">
<g clip-path="url(#clip0_262_1461)">
<path d="M106.086 73.4014L67.0253 58.8983C50.8457 52.8909 32.8595 61.1372 26.8522 77.3168C20.8448 93.4964 29.091 111.483 45.2707 117.49L84.3318 131.993C100.511 138 118.498 129.754 124.505 113.575C130.512 97.395 122.266 79.4088 106.086 73.4014Z" stroke="#B0F0D7" stroke-width="10" stroke-linejoin="round"/>
<path d="M59.7739 78.4292L52.5224 97.9598" stroke="#B0F0D7" stroke-width="10" stroke-linecap="round" stroke-linejoin="round"/>
<path d="M46.3828 84.5684L65.9134 91.8199" stroke="#B0F0D7" stroke-width="10" stroke-linecap="round" stroke-linejoin="round"/>
<path d="M88.3688 61.2675L94.0664 45.9221L113.597 53.1736L118.777 39.2232" stroke="#B0F0D7" stroke-width="10" stroke-linecap="round" stroke-linejoin="round"/>
<path d="M91.5835 112.463C96.9767 114.465 102.972 111.717 104.975 106.323C106.977 100.93 104.228 94.9348 98.8351 92.9324C93.442 90.93 87.4465 93.6788 85.444 99.0719C83.4416 104.465 86.1904 110.461 91.5835 112.463Z" stroke="#B0F0D7" stroke-width="10" stroke-linejoin="round"/>
</g>
<defs>
<clipPath id="clip0_262_1461">
<rect width="125" height="125" fill="white" transform="translate(44.2803 0.45166) rotate(20.3696)"/>
</clipPath>
</defs>
</svg>
