<?xml version="1.0" encoding="UTF-8"?>
<svg id="Capa_2" data-name="Capa 2" xmlns="http://www.w3.org/2000/svg" xmlns:xlink="http://www.w3.org/1999/xlink" viewBox="0 0 1474.33 570.42">
  <defs>
    <style>
      .cls-1 {
        fill: #f5e0c3;
      }

      .cls-2 {
        fill: #42a323;
      }

      .cls-3 {
        fill: url(#Degradado_sin_nombre_7);
      }
    </style>
    <linearGradient id="Degradado_sin_nombre_7" data-name="Degradado sin nombre 7" x1="1342.68" y1="561.29" x2="1517.22" y2="419.11" gradientTransform="translate(-133.01 228.67) rotate(-9.6)" gradientUnits="userSpaceOnUse">
      <stop offset="0" stop-color="#f03"/>
      <stop offset=".19" stop-color="#ff3e2d"/>
      <stop offset=".36" stop-color="#ff7128"/>
      <stop offset=".52" stop-color="#ff9624"/>
      <stop offset=".64" stop-color="#ffac22"/>
      <stop offset=".72" stop-color="#ffb522"/>
    </linearGradient>
  </defs>
  <g id="LOgo">
    <g>
      <path class="cls-2" d="M233.93,48.82c-10.87-16.31-24.38-28.85-40.51-37.61C177.28,2.46,160.48-1.17,143.03,.33L28.21,10.18c-8.73,.75-15.77,4.31-21.14,10.68C1.7,27.25-.61,34.8,.14,43.53L29.04,380.23c.75,8.73,4.06,15.81,9.93,21.21,5.87,5.43,13.01,7.76,21.4,7.04,8.73-.75,15.52-4.28,20.4-10.63,4.87-6.32,6.92-13.86,6.17-22.59l-12.1-140.82,87.62-7.52c17.44-1.5,33.38-8.02,47.78-19.58,14.39-11.54,25.55-26.28,33.49-44.2,7.92-17.93,11-37.29,9.21-58.12-1.81-21.14-8.17-39.88-19.02-56.19Zm-45.13,88.84c-3.3,8.91-7.73,16.31-13.32,22.2-5.58,5.89-11.57,9.11-17.93,9.65l-87.62,7.52-9.55-111.28,87.62-7.52c6.37-.55,12.8,1.52,19.29,6.2,6.49,4.68,12.11,11.05,16.86,19.1,4.75,8.05,7.54,16.94,8.38,26.66s-.43,18.56-3.73,27.46Z"/>
      <path class="cls-2" d="M426.08,210.24c-3.92-5.19-9.35-8.28-16.31-9.26-6.96-.98-13.04,.55-18.25,4.59-5.22,4.05-8.3,9.55-9.28,16.51l-.07,.53c-2.03-2.53-4.34-5.08-6.91-7.66-6.34-6.34-14.08-11.94-23.23-16.78-9.15-4.83-19.49-8.06-30.98-9.68-17.94-2.53-34.94-.07-50.99,7.35-16.06,7.43-29.62,18.91-40.67,34.41-11.05,15.51-18.12,34.24-21.21,56.19s-1.41,41.51,4.94,59.46c6.34,17.96,16.34,32.74,30,44.35,13.65,11.61,29.71,18.72,48.18,21.32,10.18,1.43,19.84,1.08,29.02-1.04,9.17-2.12,17.31-5.14,24.41-9.06,5.25-2.9,9.78-5.93,13.58-9.11-.86,6.78,.6,12.78,4.42,17.98,3.89,5.34,9.31,8.48,16.27,9.46,6.96,.98,13.04-.54,18.26-4.6,5.21-4.03,8.3-9.54,9.28-16.5l23.9-169.84c1.02-7.23-.43-13.43-4.34-18.62Zm-66.33,132.34c-6.39,9.48-14.41,16.55-24.07,21.19-9.66,4.64-20.39,6.14-32.15,4.48s-21.27-6-29.28-13.13-13.78-16.13-17.29-27.01c-3.52-10.86-4.4-22.59-2.63-35.17,1.81-12.84,5.9-24.01,12.29-33.49,6.37-9.47,14.41-16.53,24.07-21.19,9.66-4.64,20.24-6.16,31.76-4.54s21.66,6.05,29.67,13.18c8,7.14,13.76,16.14,17.29,27.01,3.52,10.87,4.38,22.73,2.57,35.58s-5.85,23.61-12.23,33.08Z"/>
      <path class="cls-2" d="M645.97,211.19c-4.76-4.42-10.66-6.51-17.67-6.25-7.04,.26-12.75,2.83-17.17,7.73-3.7,4.1-5.77,8.94-6.18,14.53-2.5-2.2-5.28-4.36-8.35-6.5-7.36-5.13-15.96-9.28-25.81-12.45-9.86-3.15-20.59-4.52-32.2-4.09-18.1,.66-34.4,6.06-48.92,16.18-14.51,10.13-25.85,23.81-34,41-8.17,17.21-11.85,36.89-11.04,59.04s5.89,41.11,15.3,57.67c9.38,16.57,21.82,29.37,37.3,38.4,15.47,9.04,32.53,13.22,51.17,12.54,10.27-.37,19.73-2.42,28.39-6.11,8.65-3.69,16.14-8.1,22.44-13.2,4.65-3.77,8.57-7.54,11.76-11.32l2.94,80.58c.26,7.02,2.77,12.81,7.53,17.38,4.76,4.55,10.65,6.71,17.69,6.46s12.74-2.84,17.16-7.73c4.42-4.91,6.5-10.86,6.25-17.88l-9.06-248.4c-.27-7.3-2.78-13.15-7.54-17.57Zm-42.25,137.87c-4.62,10.45-11.29,18.82-19.98,25.08-8.7,6.26-18.99,9.62-30.87,10.05s-21.99-2.18-31.12-7.79c-9.13-5.61-16.38-13.47-21.76-23.56-5.37-10.08-8.29-21.47-8.75-34.17s1.6-24.67,6.23-35.12c4.63-10.44,11.29-18.8,19.98-25.08,8.7-6.26,18.86-9.61,30.47-10.04,11.88-.43,22.39,2.16,31.52,7.78,9.13,5.62,16.38,13.48,21.76,23.56,5.37,10.09,8.3,21.61,8.77,34.58,.46,12.7-1.62,24.27-6.24,34.71Z"/>
      <path class="cls-2" d="M855.38,210.48c7.02,.32,12.72,2.94,17.1,7.87,4.38,4.93,6.41,10.91,6.09,17.93l-4.63,102.89c-1.29,28.63-10.28,50.95-26.96,66.98-16.69,16.03-40.02,23.36-69.99,22.01-29.98-1.35-52.48-10.75-67.53-28.21-15.04-17.45-21.92-40.49-20.63-69.12l4.63-102.89c.32-7.02,2.87-12.79,7.68-17.31,4.8-4.51,10.71-6.62,17.74-6.3,7.02,.32,12.72,2.94,17.1,7.87,4.37,4.93,6.41,10.91,6.09,17.93l-4.63,102.89c-.74,16.48,2.35,28.86,9.29,37.15,6.93,8.3,17.69,12.77,32.27,13.43,14.85,.67,26.1-2.81,33.75-10.45,7.65-7.63,11.85-19.69,12.59-36.17l4.63-102.89c.32-7.02,2.87-12.79,7.68-17.31,4.8-4.51,10.71-6.62,17.74-6.3Z"/>
      <path class="cls-2" d="M929.82,185.03c-9.19,0-15.68-1.48-19.46-4.46-3.79-2.97-5.68-8.24-5.68-15.81v-7.7c0-7.84,2.09-13.18,6.28-16.02,4.19-2.84,10.61-4.26,19.26-4.26,9.46,0,16.08,1.49,19.87,4.46,3.78,2.98,5.68,8.25,5.68,15.81v7.7c0,7.84-2.03,13.18-6.08,16.02-4.06,2.84-10.68,4.26-19.87,4.26Zm24.73,218.56c0,7.03-2.3,12.91-6.89,17.64-4.6,4.73-10.41,7.1-17.44,7.1s-12.84-2.36-17.44-7.1c-4.6-4.73-6.89-10.61-6.89-17.64V236.12c0-7.03,2.29-12.91,6.89-17.64,4.59-4.73,10.4-7.1,17.44-7.1s12.84,2.37,17.44,7.1c4.59,4.73,6.89,10.61,6.89,17.64v167.47Z"/>
      <path class="cls-2" d="M1105.81,381.81c3.1,3.52,4.66,8.38,4.66,14.6,0,7.57-4.13,13.79-12.37,18.65-8.25,4.87-17.1,7.29-26.56,7.29-5.67,0-11.96-.46-18.86-1.41-6.89-.94-13.38-3.25-19.46-6.89-6.09-3.64-11.15-9.26-15.21-16.83-4.05-7.56-6.08-17.97-6.08-31.22l1.3-163.66h-18.65c-6.49,0-11.9-2.16-16.22-6.49-4.32-4.32-6.49-9.73-6.49-16.22s2.16-11.42,6.49-15.62c4.32-4.19,9.73-6.28,16.22-6.28h18.65l.72-95.67c0-7.03,2.37-12.9,7.1-17.63,4.73-4.73,10.61-7.1,17.63-7.1s12.78,2.37,17.24,7.1c4.46,4.73,6.69,10.61,6.69,17.63l-.72,95.67h28.79c6.49,0,11.88,2.16,16.22,6.49,4.31,4.33,6.49,9.73,6.49,16.22s-2.17,11.43-6.49,15.62c-4.33,4.19-9.73,6.28-16.22,6.28h-28.79l-1.3,161.63c0,3.78,.75,6.89,2.23,9.33,1.48,2.43,3.51,4.19,6.08,5.26,2.57,1.09,5.34,1.63,8.32,1.63,3.24,0,6.21-.61,8.92-1.83,2.71-1.21,5.81-1.82,9.33-1.82,3.78,0,7.23,1.77,10.34,5.27Z"/>
      <path class="cls-2" d="M1327.35,304.02c0,22.17-4.94,41.7-14.8,58.59-9.87,16.9-23.11,30.08-39.74,39.53-16.62,9.47-35.21,14.19-55.75,14.19s-39.13-4.73-55.75-14.19c-16.62-9.46-29.87-22.64-39.74-39.53-9.87-16.89-14.8-36.42-14.8-58.59s4.93-41.7,14.8-58.59c9.86-16.89,23.11-30.14,39.74-39.74,16.62-9.59,35.21-14.39,55.75-14.39s39.13,4.8,55.75,14.39c16.62,9.6,29.87,22.85,39.74,39.74,9.86,16.9,14.8,36.43,14.8,58.59Zm-48.66,0c0-13.79-2.77-25.75-8.31-35.88-5.54-10.14-12.98-18.04-22.3-23.72-9.33-5.68-19.67-8.52-31.02-8.52s-21.69,2.84-31.02,8.52c-9.33,5.68-16.76,13.58-22.3,23.72-5.54,10.14-8.31,22.1-8.31,35.88s2.77,25.34,8.31,35.48c5.54,10.14,12.98,18.04,22.3,23.72,9.33,5.68,19.67,8.52,31.02,8.52s21.69-2.84,31.02-8.52c9.33-5.68,16.76-13.58,22.3-23.72,5.54-10.14,8.31-21.96,8.31-35.48Z"/>
      <g>
        <path d="M705.99,503.7c1.4,0,2.47,.38,3.21,1.14,.73,.76,1.1,1.81,1.1,3.14v1.91c0,1.33-.37,2.4-1.1,3.19-.74,.79-1.8,1.19-3.21,1.19h-.9c-1.4,0-2.47-.4-3.21-1.19-.74-.79-1.1-1.86-1.1-3.19v-1.91c0-1.33,.37-2.38,1.1-3.14,.73-.76,1.8-1.14,3.21-1.14h.9Zm-.5,19.44c1.6,0,2.47,.86,2.6,2.57l1.7,39.74c.07,1.4-.27,2.57-1,3.53-.74,.95-1.8,1.43-3.21,1.43s-2.57-.48-3.31-1.43c-.74-.95-1.07-2.13-1-3.53l1.7-39.74c.13-1.72,.97-2.57,2.5-2.57Z"/>
        <path d="M774.2,490.26c0,1.15-.4,2.04-1.2,2.67-.8,.64-1.77,.96-2.9,.96h-19.04v55.56c0,1.08-.4,2-1.2,2.77-.8,.76-1.83,1.14-3.1,1.14-1.2,0-2.21-.38-3.01-1.14-.8-.77-1.2-1.69-1.2-2.77v-55.56h-19.03c-1.14,0-2.09-.34-2.85-1-.77-.67-1.16-1.54-1.16-2.63s.39-1.95,1.16-2.62c.76-.66,1.71-1,2.85-1h46.58c1.13,0,2.1,.34,2.9,1,.8,.67,1.2,1.55,1.2,2.62Z"/>
        <path d="M816.97,528.87c.8-.7,1.2-1.56,1.2-2.58-.06-3.56-.77-6.78-2.1-9.67-1.34-2.89-3.1-5.37-5.31-7.44-2.2-2.06-4.74-3.63-7.61-4.71-2.87-1.08-5.84-1.62-8.92-1.62-4.14,0-8.06,1.03-11.76,3.09-3.71,2.07-6.71,5.06-9.02,8.96-2.3,3.91-3.45,8.63-3.45,14.16,0,4.95,1.11,9.32,3.35,13.1,2.24,3.78,5.36,6.75,9.37,8.91,4,2.16,8.68,3.24,14.02,3.24,3.61,0,7.01-.75,10.22-2.24,3.2-1.49,5.74-3.22,7.61-5.19,1.07-.83,1.6-1.78,1.6-2.86,0-.89-.32-1.65-.95-2.29-.64-.63-1.45-.95-2.45-.95-.81,0-1.64,.28-2.51,.86-.87,.89-1.94,1.76-3.2,2.62-1.27,.86-2.78,1.57-4.51,2.14-1.74,.57-3.78,.86-6.11,.86-3.74,0-7.01-.81-9.82-2.43-2.8-1.62-4.99-3.83-6.56-6.62-1.36-2.43-2.13-5.19-2.3-8.3h36.41c1.06,0,2-.34,2.8-1.04Zm-37.81-8.87c.97-2.35,2.24-4.27,3.81-5.76,1.56-1.5,3.34-2.58,5.3-3.24,1.97-.67,3.96-1.01,5.96-1.01,2.47,0,4.83,.51,7.07,1.53,2.23,1.02,4.14,2.46,5.71,4.34,1.56,1.87,2.48,4.11,2.75,6.71v.77h-31.59c.24-1.2,.57-2.32,.99-3.34Z"/>
        <path d="M880.77,502.84c3.41,0,6.48,.35,9.21,1.05,2.74,.7,4.91,1.65,6.51,2.86s2.4,2.57,2.4,4.1c0,.83-.3,1.62-.9,2.38-.6,.76-1.4,1.14-2.4,1.14-.94,0-1.69-.16-2.25-.48-.57-.32-1.1-.73-1.6-1.24-.5-.51-1.19-.95-2.05-1.33-.8-.44-1.97-.79-3.5-1.05-1.54-.25-3.07-.38-4.61-.38-3.67,0-6.9,.83-9.67,2.48-2.77,1.65-4.96,3.88-6.56,6.67-1.6,2.8-2.4,5.97-2.4,9.53s.77,6.74,2.3,9.53c1.54,2.8,3.67,5.02,6.41,6.67,2.74,1.65,5.91,2.48,9.51,2.48,2.34,0,4.21-.19,5.61-.57,1.4-.38,2.57-.83,3.51-1.33,1.2-.63,2.12-1.27,2.75-1.91,.63-.63,1.49-.95,2.55-.95,1.13,0,2.02,.35,2.65,1.05,.63,.7,.95,1.56,.95,2.57,0,1.14-.84,2.35-2.5,3.62-1.67,1.27-3.92,2.35-6.76,3.24-2.84,.89-6.06,1.33-9.67,1.33-5.08,0-9.52-1.13-13.32-3.38-3.81-2.25-6.76-5.34-8.86-9.25-2.1-3.91-3.16-8.28-3.16-13.1s1.08-9.18,3.25-13.06c2.17-3.88,5.19-6.96,9.07-9.24,3.87-2.29,8.38-3.43,13.52-3.43Z"/>
        <path d="M948.48,504.08c1.2,0,2.17,.37,2.9,1.1,.73,.73,1.1,1.64,1.1,2.72v26.02c0,6.42-1.89,11.39-5.66,14.92-3.77,3.53-9.03,5.29-15.78,5.29s-11.9-1.76-15.67-5.29c-3.77-3.53-5.66-8.5-5.66-14.92v-26.02c0-1.08,.38-1.99,1.15-2.72,.77-.73,1.72-1.1,2.86-1.1,1.2,0,2.17,.37,2.9,1.1,.73,.73,1.1,1.64,1.1,2.72v26.02c0,4.32,1.17,7.59,3.51,9.82,2.34,2.22,5.61,3.34,9.82,3.34s7.66-1.11,9.97-3.34c2.3-2.22,3.46-5.5,3.46-9.82v-26.02c0-1.08,.38-1.99,1.15-2.72,.77-.73,1.72-1.1,2.85-1.1Z"/>
        <path d="M1011.49,528.87c.8-.7,1.2-1.56,1.2-2.58-.07-3.56-.77-6.78-2.11-9.67-1.33-2.89-3.1-5.37-5.31-7.44-2.2-2.06-4.74-3.63-7.61-4.71-2.87-1.08-5.84-1.62-8.91-1.62-4.14,0-8.06,1.03-11.77,3.09-3.71,2.07-6.71,5.06-9.01,8.96-2.31,3.91-3.46,8.63-3.46,14.16,0,4.95,1.12,9.32,3.35,13.1,2.24,3.78,5.36,6.75,9.37,8.91,4.01,2.16,8.68,3.24,14.02,3.24,3.61,0,7.01-.75,10.22-2.24,3.2-1.49,5.74-3.22,7.61-5.19,1.07-.83,1.6-1.78,1.6-2.86,0-.89-.31-1.65-.95-2.29-.63-.63-1.45-.95-2.45-.95-.8,0-1.64,.28-2.51,.86-.86,.89-1.93,1.76-3.2,2.62s-2.77,1.57-4.51,2.14-3.77,.86-6.11,.86c-3.74,0-7.01-.81-9.81-2.43-2.81-1.62-5-3.83-6.56-6.62-1.36-2.43-2.14-5.19-2.31-8.3h36.41c1.07,0,2-.34,2.81-1.04Zm-37.82-8.87c.97-2.35,2.24-4.27,3.81-5.76,1.57-1.5,3.34-2.58,5.31-3.24,1.97-.67,3.96-1.01,5.96-1.01,2.47,0,4.82,.51,7.06,1.53,2.24,1.02,4.14,2.46,5.71,4.34,1.57,1.87,2.49,4.11,2.75,6.71v.77h-31.58c.23-1.2,.56-2.32,.98-3.34Z"/>
        <path d="M1068.38,522.67v26.78c0,1.08-.39,2-1.15,2.77-.77,.76-1.72,1.14-2.86,1.14s-2.09-.38-2.85-1.14c-.77-.77-1.16-1.69-1.16-2.77v-26.59c0-2.41-.38-4.59-1.15-6.53-.77-1.94-2.04-3.49-3.8-4.67-1.77-1.17-4.19-1.76-7.27-1.76-2.8,0-5.37,.59-7.71,1.76-2.34,1.18-4.2,2.73-5.61,4.67-1.4,1.94-2.1,4.12-2.1,6.53v26.59c0,1.08-.39,2-1.15,2.77-.77,.76-1.72,1.14-2.86,1.14s-2.08-.38-2.85-1.14c-.77-.77-1.15-1.69-1.15-2.77v-41.55c0-1.08,.38-1.99,1.15-2.72,.77-.73,1.72-1.09,2.85-1.09,1.2,0,2.17,.36,2.91,1.09,.73,.73,1.1,1.64,1.1,2.72v4.3c.09-.15,.2-.29,.3-.44,1.2-1.69,2.7-3.2,4.51-4.53,1.8-1.33,3.8-2.4,6.01-3.19,2.2-.8,4.5-1.19,6.91-1.19,4.54,0,8.11,.89,10.72,2.66,2.6,1.78,4.45,4.17,5.55,7.15,1.11,2.99,1.66,6.33,1.66,10.01Z"/>
        <path d="M1095.62,511.42v29.83c0,1.53,.23,2.67,.7,3.44,.47,.76,1.09,1.28,1.86,1.57,.76,.28,1.51,.43,2.25,.43,.67,0,1.25-.11,1.75-.34,.5-.22,1.09-.33,1.75-.33s1.29,.3,1.86,.91c.56,.6,.85,1.38,.85,2.33,0,1.15-.7,2.11-2.11,2.91-1.4,.79-2.97,1.19-4.7,1.19-.94,0-2.09-.06-3.46-.19s-2.72-.54-4.05-1.24c-1.34-.7-2.46-1.86-3.36-3.48-.9-1.62-1.35-3.89-1.35-6.81v-30.22h-6.41c-1,0-1.87-.34-2.61-1.04-.73-.7-1.1-1.56-1.1-2.58,0-.95,.37-1.76,1.1-2.43,.74-.67,1.61-1,2.61-1h6.41v-9.15c0-1.08,.4-1.98,1.2-2.72,.8-.72,1.77-1.09,2.9-1.09s2.07,.37,2.81,1.09c.73,.74,1.1,1.64,1.1,2.72v9.15h9.12c1.06,0,1.95,.35,2.65,1.05,.7,.7,1.05,1.52,1.05,2.48,0,1.01-.35,1.86-1.05,2.52-.7,.67-1.59,1-2.65,1h-9.12Z"/>
        <path d="M1165.08,504.7c-.77-.73-1.72-1.09-2.85-1.09-1.2,0-2.17,.36-2.91,1.09-.73,.74-1.1,1.64-1.1,2.72v3.81c-.89-1.22-1.97-2.36-3.25-3.43-1.84-1.52-3.99-2.73-6.46-3.62-2.48-.89-5.15-1.33-8.02-1.33-4.4,0-8.41,1.09-12.02,3.28-3.6,2.2-6.46,5.21-8.56,9.06-2.1,3.84-3.16,8.27-3.16,13.29s1.06,9.38,3.16,13.25c2.1,3.88,4.96,6.94,8.56,9.2,3.61,2.26,7.68,3.38,12.22,3.38,2.74,0,5.29-.46,7.67-1.38,2.37-.92,4.42-2.1,6.16-3.53,1.51-1.25,2.75-2.58,3.7-4v4.05c0,1.08,.37,2,1.1,2.77,.74,.76,1.71,1.14,2.91,1.14,1.13,0,2.08-.38,2.85-1.14,.77-.77,1.15-1.69,1.15-2.77v-42.03c0-1.08-.38-1.98-1.15-2.72Zm-8.61,33.36c-1.44,2.83-3.44,5.07-6.01,6.72-2.57,1.65-5.53,2.48-8.87,2.48s-6.29-.83-8.86-2.48c-2.57-1.65-4.57-3.89-6.01-6.72-1.44-2.82-2.15-6.02-2.15-9.58s.73-6.83,2.2-9.62c1.47-2.8,3.49-4.99,6.06-6.58,2.57-1.59,5.49-2.38,8.76-2.38s6.3,.81,8.87,2.43,4.57,3.84,6.01,6.67c1.43,2.83,2.15,5.99,2.15,9.48s-.72,6.76-2.15,9.58Z"/>
        <path d="M1183.86,553.36c-1.4,0-2.47-.4-3.21-1.19-.74-.79-1.1-1.86-1.1-3.19v-1.91c0-1.33,.37-2.38,1.1-3.15,.73-.76,1.8-1.14,3.21-1.14h.9c1.4,0,2.47,.38,3.21,1.14,.73,.76,1.1,1.81,1.1,3.15v1.91c0,1.33-.37,2.4-1.1,3.19-.74,.79-1.8,1.19-3.21,1.19h-.9Zm.5-19.44c-1.6,0-2.47-.86-2.6-2.57l-1.7-39.74c-.07-1.46,.27-2.65,1-3.57,.73-.92,1.8-1.38,3.21-1.38s2.57,.46,3.31,1.38c.73,.92,1.07,2.11,1,3.57l-1.7,39.74c-.13,1.72-.97,2.57-2.5,2.57Z"/>
      </g>
      <g>
        <path class="cls-3" d="M1468.04,431.37l-28.45,16.19,25.5-6.45c-4.98,17.2-26,45.03-26,45.03-5.3,5.95-52.34-3.91-53.63-4.17,23.2,8.78,48.99,9.9,48.99,9.9,0,0-3.59,6.68-13.87,18.22-51.03,57.29-87.86,28.8-91.98,25.28l18.04,16.54c-34.52,13.93-59.52-18.7-59.52-18.7,0,0-21.25-43.72,8.89-86.01l5.77,29.95c-5.34-45.08,2-52.53,41.79-88.09-2.16,1.94,5.49,24.35,9.18,27.67-.28-.79-8.41-22.79-3.37-32.62,0,0,60.29-75.61,111.28-39.92,25.61,31.44,7.39,87.17,7.39,87.17Z"/>
        <path class="cls-1" d="M1224.51,567.15c18.43-5.97,36.25-13.67,53.35-22.78,14.87-7.92,29.12-17.12,42.54-27.3,12.42-9.41,24.22-19.65,35.35-30.55,10.25-10.04,19.93-20.64,29.29-31.52,8.18-9.51,16.07-19.26,23.9-29.05,.92-1.14,1.83-2.29,2.75-3.43s1.07-2.58-.22-3.37c-1.47-.9-4.55-.31-5.98,.05-5.17,1.28-10.78,3.85-14.17,8.1-7.58,9.48-15.16,18.95-23,28.21-2.09,2.47-4.2,4.93-6.33,7.37-.51,.58-1.02,1.17-1.53,1.75,1.93-2.21-.19,.21-.68,.77-1.09,1.22-2.18,2.44-3.28,3.65-4.59,5.07-9.28,10.04-14.09,14.89-5,5.04-10.13,9.96-15.39,14.72-2.71,2.45-5.45,4.85-8.23,7.21-.72,.61-1.43,1.21-2.16,1.81-.31,.26-.62,.52-.93,.77-.77,.64,1.35-1.11,1.14-.94-.26,.21-.52,.43-.78,.64-1.42,1.16-2.85,2.31-4.28,3.45-5.99,4.74-12.15,9.27-18.48,13.55-1.65,1.12-3.31,2.22-4.98,3.3-1.38,.9,2.66-1.71,.79-.51-.36,.23-.73,.46-1.09,.69-.91,.58-1.83,1.15-2.75,1.72-3.35,2.07-6.74,4.08-10.18,6.02-1.81,1.02-3.63,2.02-5.46,3-.86,.46-1.72,.91-2.58,1.37-.47,.24-.94,.48-1.4,.73-.37,.2,2.93-1.5,1.81-.93-.34,.17-.67,.34-1.01,.51-3.68,1.86-7.39,3.65-11.15,5.36-1.98,.9-3.97,1.78-5.97,2.63-.94,.4-1.88,.8-2.82,1.19-.51,.21-1.02,.42-1.53,.63-.22,.09-.44,.18-.66,.27-1.16,.47,3.26-1.3,1.39-.56-4.11,1.63-8.25,3.18-12.43,4.64-2.09,.73-4.19,1.43-6.3,2.11-2.8,.91-5.79,2.44-8.15,4.19-1.06,.78-3.81,2.86-3.95,4.5-.36,4.34,7.92,1.68,9.64,1.12h0Z"/>
      </g>
    </g>
  </g>
</svg>