<?xml version="1.0" encoding="UTF-8"?>
<svg id="Paquito" xmlns="http://www.w3.org/2000/svg" xmlns:xlink="http://www.w3.org/1999/xlink" viewBox="0 0 1080 1080">
  <defs>
    <style>
      .cls-1 {
        fill: #f4c184;
      }

      .cls-2 {
        fill: url(#Degradado_sin_nombre_39);
      }

      .cls-3 {
        fill: #ffd41f;
      }

      .cls-4 {
        fill: #d32036;
      }

      .cls-5 {
        fill: url(#Degradado_sin_nombre_22);
      }

      .cls-6 {
        fill: #f5e0c3;
      }

      .cls-7 {
        fill: #f9f4ed;
      }

      .cls-8 {
        fill: #af1932;
      }

      .cls-9 {
        fill: #43af25;
      }

      .cls-10 {
        fill: #42a323;
      }

      .cls-11 {
        fill: #f03;
      }
    </style>
    <radialGradient id="Degradado_sin_nombre_39" data-name="Degradado sin nombre 39" cx="719.7" cy="559.01" fx="812.5" fy="471.41" r="333.73" gradientUnits="userSpaceOnUse">
      <stop offset=".37" stop-color="#ffd41f"/>
      <stop offset=".44" stop-color="#e8d61d"/>
      <stop offset=".61" stop-color="#b4dc1b"/>
      <stop offset=".73" stop-color="#94e019"/>
      <stop offset=".8" stop-color="#89e219"/>
      <stop offset="1" stop-color="#43af25"/>
    </radialGradient>
    <radialGradient id="Degradado_sin_nombre_22" data-name="Degradado sin nombre 22" cx="700.39" cy="314.4" fx="700.39" fy="314.4" r="209.85" gradientUnits="userSpaceOnUse">
      <stop offset="0" stop-color="#f03"/>
      <stop offset=".14" stop-color="#ff1f30"/>
      <stop offset=".44" stop-color="#ff5f2a"/>
      <stop offset=".69" stop-color="#ff8d25"/>
      <stop offset=".89" stop-color="#ffaa23"/>
      <stop offset="1" stop-color="#ffb522"/>
    </radialGradient>
  </defs>
  <g id="paco_default" data-name="paco default">
    <path class="cls-9" d="M359.26,910.7s-116.55,118.6-172.19,89.58c-67.59-35.25,193.11-161.64,193.11-161.64,0,0,12.16,44.34,62.76,54.36,0,0-86.9,92.26-152.88,107.82-27.04,6.37-36.28-8.06-36.28-8.06"/>
    <path class="cls-2" d="M879.32,503.83c7.27-16.96,17.91-39.07,17.97-76.08,.08-46.38-12.54-76.01-21.61-93.35,.45-6.64,3.91-131.96-90.26-197.14-13.59-9.4-27.46-16.39-41.25-21.53,8.92-8.15,8.23-16.38,5.33-24.04-4.49-11.86-25.9-14.84-48.75-7.2,4.05-15.59-2.41-22.45-10.56-26.91-11.67-6.39-31.16,6.74-43.52,29.33-3.34,6.11-5.89,12.61-7.63,18.98-24.53,3.55-42.4,9.84-48.29,12.02-104.93,38.9-174.79,163.72-166.95,309.84-122.96,144.63-170.85,301.61-113.01,396.24,10.1,16.52,25.23,34.11,48.64,50.07,26.52,12.03,206.27,90.15,373.35,0,34.82-18.79,136.51-73.66,164.5-190.25,18.83-78.42-5.98-152.08-17.97-179.97Z"/>
    <path class="cls-3" d="M734.46,662.33c11.09,7.02,30.66-3.82,44.82-24.34,6.34,15.42,15.95,17.09,25.47,15.71,13.63-1.97,21.6-24.95,17.79-51.33-3.81-26.38-20.02-45.3-33.36-48.71-11.94-3.05-36.57,25.93-45.85,42.07-21.06,36.59-20.51,59.23-8.87,66.6Z"/>
    <path class="cls-5" d="M897.29,427.74c-1.57-46.35-12.54-76.01-21.61-93.35,.45-6.64,3.91-131.96-90.26-197.14-13.59-9.4-27.46-16.39-41.25-21.53,8.92-8.15,8.23-16.38,5.33-24.04-4.49-11.86-25.9-14.84-48.75-7.2,4.05-15.59-2.41-22.45-10.56-26.91-11.67-6.39-31.16,6.74-43.52,29.33-3.34,6.11-5.89,12.61-7.63,18.98-24.53,3.55-42.4,9.84-48.29,12.02-104.93,38.9-174.79,163.72-166.95,309.84,69.55,144.96,479.36,173.76,473.48,0Z"/>
    <path class="cls-3" d="M647.91,157.13c4.71,12.44,3.7,26.37-35.06,39.05-24.47,8-51.29,9.06-56.01-3.38-4.71-12.44,14.86-32.56,38.94-41.68,24.08-9.12,47.42-6.43,52.13,6.01Z"/>
    <path class="cls-3" d="M737.69,159.14c-4.17,11-3.29,23.31,30.84,34.46,21.55,7.04,45.17,7.94,49.34-3.06,4.17-11-13.05-28.75-34.25-36.78-21.2-8.03-41.76-5.62-45.93,5.38Z"/>
    <path class="cls-9" d="M238.92,831.49c-2.5-83.86,103.76-337.78,235.67-324.72,75.8,7.51,107.28,133.39,47.2,212.78-115.89,153.14-295.84,173.17-295.84,135.89,0-9.22,3.33-14.77,10.45-21.63l2.51-2.33Z"/>
    <path class="cls-10" d="M238.92,831.49c-.91-30.5,12.57-83.51,36.44-137.98,19.63-44.8-7.45,47.38,34.05,76.47,46.75,32.77,160.73,6.56,148.97,16.47-108.42,91.4-232.43,99.95-232.43,69,0-9.22,3.33-14.77,10.45-21.63l2.51-2.33Z"/>
    <g>
      <path class="cls-7" d="M671.08,387.98c12.17-16.2,18.48-40.43,18.11-72.11-.64-53.89-16.32-95.96-69.2-95.96-44.89,0-78.34,47.21-78.34,100.21,0,4.81,1.24,18.77,1.78,23.32,18.35,3.37,39.28,8.41,61.87,16.07,25.65,8.7,47.65,18.8,65.78,28.48Z"/>
      <path d="M629.62,263.74c-2.18,0-4.29,.43-6.32,1.16,2.88,3.21,4.69,7.41,4.69,12.06,0,10-8.11,18.12-18.12,18.12-2.27,0-4.41-.47-6.41-1.23-.6,3.36-.95,6.88-.95,10.53,0,22.44,12.14,40.64,27.11,40.64s27.11-18.19,27.11-40.64-12.14-40.64-27.11-40.64Z"/>
    </g>
    <g>
      <path class="cls-7" d="M756.57,387.98c11.22-10.29,26.6-22.37,46.49-33.13,14.19-7.67,27.52-12.97,38.98-16.67,3.56-11.76,4.93-25.12,3.61-39.44-4.31-46.76-35.45-85.89-72.08-82.51-43.15,3.98-46.97,41.21-43.1,88.79,2.71,33.41,12.39,70.2,26.1,82.97Z"/>
      <path d="M773.35,256.81c-1.75,0-3.44,.34-5.08,.93,2.32,2.58,3.77,5.95,3.77,9.68,0,8.03-6.51,14.54-14.54,14.54-1.82,0-3.54-.37-5.15-.98-.48,2.7-.76,5.52-.76,8.45,0,18.02,9.75,32.62,21.77,32.62s21.77-14.61,21.77-32.62-9.75-32.62-21.77-32.62Z"/>
    </g>
    <path class="cls-8" d="M703.27,408.08s-8.1,63.44,11.89,76.32c36.21,23.34,68.66-26.81,68.66-26.81l-80.55-49.51Z"/>
    <path class="cls-4" d="M705.23,417.99c-3.52-1.71-5.64-5.35-5.41-9.25,1.36-22.21,8.9-93.9,49.73-94.82,25.51-.57,71.57,44.44,72.29,91.65,.72,47.2-27.98,98.68-33.17,93.16-13.09-13.93-19.67-37.7-21.88-47.19-.61-2.61-2.34-4.81-4.75-5.98l-56.8-27.57Z"/>
    <path class="cls-6" d="M705.54,406.42c-.11-12.64,1.31-22.58,3.79-33.89,4.12-18.75,11.69-38.99,28.15-48.01,10.88-5.97,17.01-7.17,30.67-3.08,4.15,1.25,2.57-4.45-.67-7.24-17.8-15.32-44.71-5.42-58.43,15.13-11.3,16.92-16.03,38.29-18.06,59.54-.46,4.85-.83,9.76-.79,14.73,.08,9.43,15.42,12.26,15.34,2.82h0Z"/>
    <path class="cls-11" d="M792.65,362.23c-4.42,.86-3.97-2.48-16.61-10.71s-24.35-9.76-18.95-14.67c2.99-2.71,12.46-3.87,25.1,4.36,12.64,8.23,13.69,20.39,10.47,21.02Z"/>
    <path class="cls-1" d="M573.38,942.55c-45.69-12.91-87.8-2.25-90.54,7.44-1.64,5.8,11.25,9.95,31.6,15.1,10.7,3.79,23.52,9.03,37.49,17.16,41.02,23.9,57.93,45.7,69.76,41.18,6.22-2.38,3.03-15.48-9.55-30.75,20.66,6.44,34.5,9.87,36.15,4.04,2.74-9.69-29.22-41.28-74.91-54.18Z"/>
    <path class="cls-1" d="M734.1,923.37c-45.69-12.91-87.8-2.25-90.54,7.44-1.64,5.8,11.25,9.95,31.6,15.1,10.7,3.79,23.52,9.03,37.49,17.16,41.02,23.9,57.93,45.7,69.76,41.18,6.22-2.38,3.03-15.48-9.55-30.75,20.66,6.44,34.5,9.87,36.15,4.04,2.74-9.69-29.22-41.28-74.91-54.18Z"/>
  </g>
</svg>