<?xml version="1.0" encoding="UTF-8"?>
<svg id="Paquito" xmlns="http://www.w3.org/2000/svg" xmlns:xlink="http://www.w3.org/1999/xlink" viewBox="0 0 1080 1080">
  <defs>
    <style>
      .cls-1 {
        fill: #f4c184;
      }

      .cls-2 {
        fill: url(#Degradado_sin_nombre_39);
      }

      .cls-3 {
        fill: #ffd41f;
      }

      .cls-4 {
        fill: #d32036;
      }

      .cls-5 {
        fill: url(#Degradado_sin_nombre_22);
      }

      .cls-6 {
        fill: #f5e0c3;
      }

      .cls-7 {
        fill: #f9f4ed;
      }

      .cls-8 {
        fill: #af1932;
      }

      .cls-9 {
        fill: #43af25;
      }

      .cls-10 {
        fill: #42a323;
      }

      .cls-11 {
        fill: #f03;
      }
    </style>
    <radialGradient id="Degradado_sin_nombre_39" data-name="Degradado sin nombre 39" cx="701.25" cy="641.26" fx="777.07" fy="569.69" r="272.67" gradientUnits="userSpaceOnUse">
      <stop offset=".37" stop-color="#ffd41f"/>
      <stop offset=".44" stop-color="#e8d61d"/>
      <stop offset=".61" stop-color="#b4dc1b"/>
      <stop offset=".73" stop-color="#94e019"/>
      <stop offset=".8" stop-color="#89e219"/>
      <stop offset="1" stop-color="#43af25"/>
    </radialGradient>
    <radialGradient id="Degradado_sin_nombre_22" data-name="Degradado sin nombre 22" cx="701.79" cy="306.24" fx="701.79" fy="306.24" r="212.4" gradientTransform="translate(62.37 -102.4) rotate(10.1)" gradientUnits="userSpaceOnUse">
      <stop offset="0" stop-color="#f03"/>
      <stop offset=".14" stop-color="#ff1f30"/>
      <stop offset=".44" stop-color="#ff5f2a"/>
      <stop offset=".69" stop-color="#ff8d25"/>
      <stop offset=".89" stop-color="#ffaa23"/>
      <stop offset="1" stop-color="#ffb522"/>
    </radialGradient>
  </defs>
  <g id="paco_triste" data-name="paco triste">
    <g>
      <path class="cls-9" d="M929.12,802.44c1.39-3.86,2.81-8.19,4.18-12.95,1.37-4.78,2.7-10.08,3.79-16.2,.28-1.51,.51-3.16,.76-4.76,.21-1.69,.42-3.41,.64-5.16,.4-3.49,.76-7.06,1.07-10.72,.58-7.26,1.14-15.05,1.42-22.97,.06-1.98,.12-3.98,.19-6.01,.05-2.03,.1-4.08,.15-6.16,.07-4.13,.09-8.31,.05-12.52-.04-4.22-.1-8.57-.23-12.89-.13-4.36-.33-8.67-.57-13.13-.49-8.91-1.23-17.81-2.24-26.95-.51-4.56-1.08-9.07-1.74-13.65-.66-4.6-1.4-9.18-2.21-13.75-6.43-36.51-18.52-73.47-37.68-102.68-2.33-3.62-4.93-7.18-7.52-10.56-2.61-3.38-5.31-6.61-8.09-9.68-5.67-6.15-11.75-11.65-18.09-16.34-12.96-9.4-27.15-15.59-42.86-17.58-17.94-2.31-34.69,3.29-49.47,13.65-14.79,10.38-27.59,25.42-37.63,42.38-5.1,8.56-9.45,17.6-12.97,26.91-1.8,4.71-3.39,9.48-4.73,14.28-1.34,4.8-2.42,9.62-3.33,14.58-.88,4.93-1.49,9.88-1.81,14.81-.33,4.97-.42,10.03-.16,15,.13,2.5,.34,4.98,.62,7.47,.27,2.53,.63,5.04,1.08,7.55,.44,2.51,.98,5,1.6,7.48,.62,2.47,1.33,4.95,2.12,7.47,1.53,4.82,3.17,9.55,4.89,14.18,1.72,4.68,3.53,9.34,5.43,13.87,.95,2.28,1.92,4.5,2.91,6.75,.99,2.26,2.01,4.5,3.04,6.72,2.07,4.45,4.2,8.74,6.44,13.06,4.47,8.64,9.2,16.87,14.25,24.92,2.52,4.02,5.06,7.88,7.72,11.75,2.65,3.86,5.35,7.62,8.09,11.28,2.72,3.64,5.55,7.25,8.4,10.75,2.85,3.5,5.73,6.89,8.63,10.18,5.9,6.62,11.87,12.83,17.91,18.61,6.13,5.81,12.23,11.17,18.36,16.1,6.2,4.94,12.33,9.43,18.35,13.47,6.09,4.13,12.41,8.35,18.74,12.04,6.34,3.7,12.7,6.9,18.91,9.33,6.22,2.44,12.26,4.07,17.78,4.88,5.61,.8,10.64,.81,15.11,.15,4.41-.61,8.25-1.91,11.34-3.44,3.16-1.6,5.63-3.46,7.56-5.39,3.84-3.86,5.67-7.98,5.99-11.3,.33-3.42,.28-5.65-.43-7.65-.72-1.93-2.09-3.59-4.22-5.71-.5-.49-1.02-.94-1.52-1.49Z"/>
      <path class="cls-10" d="M929.12,802.44c.51-1.44,1.01-2.85,1.53-4.41,.25-.75,.5-1.52,.76-2.31,.25-.79,.5-1.6,.76-2.43,1.01-3.26,2.02-6.8,2.96-10.67,.94-3.85,1.82-8.07,2.52-12.78,.18-1.15,.34-2.39,.5-3.65,.15-1.25,.3-2.51,.45-3.79,.29-2.55,.55-5.14,.79-7.78,1.91-21.15,2.58-45.26,1.42-70.88-.95-21.15-3.39-10.82-11.31,6.47-3.93,8.6-9.27,19.08-16.39,28.2-7.13,9.14-16.14,17.1-27.65,20.65-12.97,4-28.51,3.76-44.43,1.1-15.84-2.63-32.17-7.69-46.47-12.86-7.16-2.58-13.91-5.25-19.86-7.62-5.95-2.37-11.17-4.51-15.39-6.14-8.44-3.26-12.86-4.49-11.1-1.53,16.17,27.17,35.49,50.98,55.66,70.1,5.08,4.79,10.17,9.28,15.22,13.47,5.11,4.19,10.27,8.08,15.3,11.66,9.95,6.91,20.48,14.08,31.04,19.6,5.27,2.75,10.47,5.06,15.59,6.84,2.5,.88,5.07,1.63,7.47,2.24,2.45,.6,4.84,1.07,7.12,1.39,9.25,1.31,17.03,.31,22.93-1.95,2.92-1.07,5.44-2.51,7.51-4.01,2.07-1.51,3.72-3.12,5.04-4.75,2.61-3.26,3.95-6.56,4.2-9.32,.33-3.42,.28-5.65-.43-7.65-.72-1.93-2.09-3.59-4.22-5.71-.5-.49-1.02-.94-1.52-1.49Z"/>
    </g>
    <path class="cls-9" d="M340.81,907.45s-116.55,118.6-172.19,89.58c-67.59-35.25,193.11-161.64,193.11-161.64,0,0,12.16,44.34,62.76,54.36,0,0-86.9,92.26-152.88,107.82-27.04,6.37-36.28-8.06-36.28-8.06"/>
    <path class="cls-2" d="M860.86,500.57c7.27-16.96,5.43-152.1-3.64-169.43,.45-6.64-450.22-209.8-451.87,93.35-122.96,144.63-170.85,301.61-113.01,396.24,10.1,16.52,25.23,34.11,48.64,50.07,26.52,12.03,206.27,90.15,373.35,0,34.82-18.79,136.51-73.66,164.5-190.25,18.83-78.42-5.98-152.08-17.97-179.97Z"/>
    <path class="cls-3" d="M716,659.08c11.09,7.02,30.66-3.82,44.82-24.34,6.34,15.42,15.95,17.09,25.47,15.71,13.63-1.97,21.6-24.95,17.79-51.33-3.81-26.38-20.02-45.3-33.36-48.71-11.94-3.05-36.57,25.93-45.85,42.07-21.06,36.59-20.51,59.23-8.87,66.6Z"/>
    <path class="cls-5" d="M874.51,462.98c6.58-45.91,.99-77.04-4.91-95.69,1.61-6.45,26.99-129.23-54.29-209.91-11.73-11.64-24.16-20.96-36.83-28.43,10.21-6.46,10.97-14.68,9.46-22.73-2.34-12.46-22.9-19.15-46.73-15.63,6.72-14.64,1.56-22.53-5.68-28.35-10.37-8.34-31.85,1.17-47.99,21.24-4.36,5.43-8.01,11.38-10.83,17.35-24.78-.8-43.47,2.25-49.65,3.37-110.12,19.9-200.79,130.54-218.69,275.77-29.9,170.24,441.46,255.13,466.14,83.03Z"/>
    <path class="cls-3" d="M671.84,148.86c5.85,11.95,6.14,25.91-31.28,42.14-23.62,10.25-50.23,13.79-56.08,1.84-5.85-11.95,11.76-33.8,34.89-45.12,23.13-11.32,46.61-10.81,52.47,1.14Z"/>
    <path class="cls-3" d="M758.67,158.73c-8.08,8.55-12.01,20.24,15.19,43.68,17.17,14.8,38.63,24.72,46.71,16.18,8.08-8.55-.97-31.56-17.44-47.13-16.47-15.57-36.38-21.27-44.46-12.72Z"/>
    <g>
      <g>
        <path class="cls-7" d="M694.54,285.64c-7.64,62.07-37.94,91.98-84.12,85.72-46.17-6.26-75.36-49.42-68.22-102.08,1.26-9.3,3.57-18.27,6.77-26.7,9.06-.43,18.27-1.42,27.52-2.98,41.56-6.98,74.92-23.93,94.58-45.68,24,18.35,28.3,52.46,23.46,91.72Z"/>
        <path d="M651.79,241.9c-2.24-.3-4.47-.17-6.66,.27,2.53,3.59,3.83,8.02,3.2,12.64-1.35,9.94-10.79,16.87-21.08,15.48-2.33-.32-4.48-1.08-6.43-2.11-1.07,3.26-1.91,6.7-2.4,10.33-3.03,22.31,7.01,42.08,22.41,44.17,15.4,2.09,30.34-14.3,33.37-36.61s-7.01-42.08-22.41-44.17Z"/>
      </g>
      <g>
        <path class="cls-7" d="M788.02,368.86c-38.13-1.75-52.37-32.89-49.55-88.24,1.53-29.96,5.61-55.46,19.49-69.82,15.06,17.76,36.81,34.09,63.87,46.69,11.58,5.39,23.37,9.75,35.06,13.06,.86,6.48,1.18,13.15,.91,19.9-1.87,47.08-31.65,80.17-69.79,78.42Z"/>
        <path d="M779.9,257.87c-1.8-.24-3.59-.14-5.35,.21,2.03,2.88,3.07,6.44,2.57,10.15-1.08,7.98-8.66,13.55-16.92,12.43-1.87-.25-3.6-.87-5.16-1.7-.86,2.62-1.53,5.38-1.93,8.29-2.43,17.91,5.63,33.78,17.99,35.46s24.36-11.48,26.79-29.39c2.43-17.91-5.63-33.78-17.99-35.46Z"/>
      </g>
    </g>
    <g>
      <path class="cls-8" d="M686.95,409.6s-19.1,61.04-1.68,77.22c31.55,29.32,72.3-14.35,72.3-14.35l-70.62-62.87Z"/>
      <path class="cls-4" d="M687.13,419.7c-3.16-2.3-4.62-6.26-3.7-10.06,5.23-21.63,25.23-90.89,65.58-84.63,25.21,3.91,62.67,56.3,55.09,102.9-7.57,46.6-44.85,92.25-48.99,85.9-10.44-16.01-12.76-40.56-13.27-50.3-.14-2.67-1.47-5.14-3.63-6.72l-51.09-37.1Z"/>
      <path class="cls-6" d="M689.47,408.36c2.11-12.46,5.25-22,9.67-32.7,7.34-17.74,18.35-36.33,36.13-42.33,11.76-3.97,18-4.08,30.74,2.35,3.87,1.95,3.31-3.93,.61-7.25-14.84-18.2-43.07-13.18-60.18,4.64-14.09,14.68-22.49,34.89-28.22,55.45-1.31,4.69-2.53,9.47-3.36,14.37-1.58,9.3,13.03,14.78,14.61,5.47h0Z"/>
      <path class="cls-11" d="M782.98,380.13c-4.5,.08-3.48-3.14-14.48-13.45-11-10.31-22.26-13.88-16.09-17.77,3.42-2.15,12.94-1.62,23.94,8.69,11,10.31,9.9,22.47,6.62,22.53Z"/>
    </g>
    <path class="cls-1" d="M554.92,939.3c-45.69-12.91-87.8-2.25-90.54,7.44-1.64,5.8,11.25,9.95,31.6,15.1,10.7,3.79,23.52,9.03,37.49,17.16,41.02,23.9,57.93,45.7,69.76,41.18,6.22-2.38,3.03-15.48-9.55-30.75,20.66,6.44,34.5,9.87,36.15,4.04,2.74-9.69-29.22-41.28-74.91-54.18Z"/>
    <path class="cls-1" d="M715.64,920.11c-45.69-12.91-87.8-2.25-90.54,7.44-1.64,5.8,11.25,9.95,31.6,15.1,10.7,3.79,23.52,9.03,37.49,17.16,41.02,23.9,57.93,45.7,69.76,41.18,6.22-2.38,3.03-15.48-9.55-30.75,20.66,6.44,34.5,9.87,36.15,4.04,2.74-9.69-29.22-41.28-74.91-54.18Z"/>
    <g>
      <path class="cls-9" d="M356.8,892.81c5.31-1.7,11.03-4.35,17-7.78,5.95-3.41,12.06-7.59,18.09-12.01,1.47-1.09,2.98-2.2,4.51-3.34,1.47-1.08,2.94-2.19,4.44-3.33,2.98-2.29,6.02-4.7,9.09-7.25,6.21-5.09,12.29-10.65,18.58-16.65,1.56-1.5,3.14-3.03,4.69-4.58,1.53-1.55,3.07-3.12,4.63-4.71,3.09-3.19,6.18-6.48,9.28-9.85,3.09-3.38,6.08-6.8,9.1-10.32,3-3.51,6.04-7.14,8.94-10.76,5.83-7.25,11.6-14.85,17.02-22.45,2.72-3.82,5.41-7.72,8.01-11.6,2.59-3.86,5.12-7.77,7.57-11.7,19.64-31.52,34.33-63.2,40.4-92.67,.73-3.75,1.4-7.31,1.88-10.95,.48-3.62,.82-7.23,.99-10.83,.4-7.1,.19-14.09-.75-21.07-1.73-13.72-6.29-27.26-14.04-40.11-8.98-14.85-22.8-26.03-39.51-32.68-16.69-6.66-36.38-8.77-56.75-5.71-10.07,1.55-20.34,4.36-30.39,8.44-4.96,2.04-9.87,4.39-14.7,7.04-4.83,2.65-9.59,5.61-14.07,8.84-4.51,3.23-8.9,6.75-13.1,10.55-4.17,3.79-8.06,7.82-11.78,12.12-1.85,2.15-3.66,4.37-5.38,6.64-1.69,2.26-3.32,4.58-4.89,6.95-1.56,2.38-3.06,4.82-4.49,7.31-1.43,2.5-2.78,5.05-4,7.62-2.38,4.98-4.62,9.97-6.74,14.94-2.08,4.94-3.98,9.83-5.77,14.74-.89,2.44-1.77,4.91-2.58,7.32-.81,2.41-1.59,4.82-2.34,7.22-1.49,4.79-2.89,9.62-4.12,14.32-2.46,9.39-4.48,18.74-6.02,27.75-.78,4.51-1.46,9.07-2.03,13.46-.58,4.4-1.05,8.78-1.44,13.11-.39,4.36-.69,8.59-.92,12.79-.22,4.2-.36,8.37-.42,12.5-.15,8.15,.02,16.15,.43,23.91,.36,7.68,1.03,15.23,1.86,22.49,.79,7.21,1.81,14.21,3.02,20.97,1.22,6.64,2.81,12.43,4.42,17.86,1.62,5.42,3.3,10.45,4.84,15.27,1.54,4.81,2.93,9.42,4.12,13.95,1.15,4.45,2.12,8.86,2.87,12.95,.79,4.16,1.35,7.99,2.03,11.54,.62,3.48,1.34,6.63,2.34,9.24,1.98,5.23,5.24,8.29,10.56,7.94,5.14-.41,9.56-2.02,13.36-4.72,3.87-2.69,7.14-6.49,10.19-11.34,.68-1.13,1.38-2.26,1.98-3.38Z"/>
      <path class="cls-10" d="M356.8,892.81c1.89-.61,3.94-1.37,5.94-2.22,1.01-.43,2.05-.89,3.1-1.39,1.04-.49,2.07-1,3.14-1.55,4.26-2.19,8.62-4.8,13.02-7.71,4.42-2.92,8.82-6.12,13.18-9.34,1.07-.79,2.15-1.6,3.24-2.42,1.07-.81,2.15-1.64,3.24-2.47,2.18-1.68,4.38-3.43,6.6-5.25,17.76-14.5,36.48-33.35,53.69-54.31,14.09-17.19,5.15-10.79-12.74-2.9-9,3.97-20.11,8.23-31.8,10.08-11.66,1.85-23.68,1.21-34.33-4.44-12-6.37-22.81-17.51-32.47-30.26-9.7-12.81-18.17-27.15-25.34-40.42-3.57-6.63-6.8-12.88-9.65-18.56-2.85-5.67-5.31-10.68-7.37-14.64-4.12-7.93-6.6-11.72-7.25-8.44-5.97,30.45-7.13,58.7-5.76,84.35,.33,6.37,.83,12.63,1.5,18.73,.63,6.06,1.38,11.92,2.29,17.66,1.72,11.73,4.5,21.2,7.22,29.72,1.41,4.4,2.72,8.5,3.93,12.29,.63,2.01,1.2,3.88,1.77,5.84,.55,1.9,1.07,3.79,1.56,5.67,1.94,7.42,3.19,14.55,4.2,20.73,.56,3.14,1.04,5.97,1.68,8.54,.64,2.56,1.41,4.82,2.42,6.67,2,3.7,5.03,5.76,9.44,5.47,5.14-.41,9.56-2.02,13.36-4.72,3.87-2.69,7.14-6.49,10.19-11.34,.68-1.13,1.38-2.26,1.98-3.38Z"/>
    </g>
  </g>
</svg>