<?xml version="1.0" encoding="UTF-8"?>
<svg id="Paquito" xmlns="http://www.w3.org/2000/svg" xmlns:xlink="http://www.w3.org/1999/xlink" viewBox="0 0 1080 1080">
  <defs>
    <style>
      .cls-1 {
        fill: #f4c184;
      }

      .cls-2 {
        fill: url(#Degradado_sin_nombre_39);
      }

      .cls-3 {
        fill: #ffd41f;
      }

      .cls-4 {
        fill: #d32036;
      }

      .cls-5 {
        fill: url(#Degradado_sin_nombre_22);
      }

      .cls-6 {
        fill: #f5e0c3;
      }

      .cls-7 {
        fill: #f9f4ed;
      }

      .cls-8 {
        fill: #af1932;
      }

      .cls-9 {
        fill: #43af25;
      }

      .cls-10 {
        fill: #42a323;
      }

      .cls-11 {
        fill: #f03;
      }
    </style>
    <radialGradient id="Degradado_sin_nombre_39" data-name="Degradado sin nombre 39" cx="670.05" cy="559.01" fx="762.85" fy="471.41" r="333.73" gradientUnits="userSpaceOnUse">
      <stop offset=".37" stop-color="#ffd41f"/>
      <stop offset=".44" stop-color="#e8d61d"/>
      <stop offset=".61" stop-color="#b4dc1b"/>
      <stop offset=".73" stop-color="#94e019"/>
      <stop offset=".8" stop-color="#89e219"/>
      <stop offset="1" stop-color="#43af25"/>
    </radialGradient>
    <radialGradient id="Degradado_sin_nombre_22" data-name="Degradado sin nombre 22" cx="650.74" cy="314.4" fx="650.74" fy="314.4" r="209.85" gradientUnits="userSpaceOnUse">
      <stop offset="0" stop-color="#f03"/>
      <stop offset=".14" stop-color="#ff1f30"/>
      <stop offset=".44" stop-color="#ff5f2a"/>
      <stop offset=".69" stop-color="#ff8d25"/>
      <stop offset=".89" stop-color="#ffaa23"/>
      <stop offset="1" stop-color="#ffb522"/>
    </radialGradient>
  </defs>
  <g id="paco_saludando" data-name="paco saludando">
    <g>
      <path class="cls-9" d="M916.64,243.32c-8.55,5.97-18.31,14.91-28.82,25.71-10.5,10.81-21.71,23.55-33.31,36.88-11.58,13.34-23.52,27.3-35.39,40.67-2.97,3.34-5.99,6.58-8.88,9.92-3.01,3.19-5.92,6.44-8.83,9.62-1.49,1.55-2.95,3.1-4.4,4.66-1.45,1.56-2.84,3.15-4.33,4.62-1.46,1.49-2.89,3-4.3,4.51-.7,.74-1.4,1.54-2.1,2.24l-2.06,2.07c-10.9,11.07-21.65,21.43-31.41,31.11-9.77,9.71-18.51,18.73-25.93,27.8-7.45,9.09-13.59,18.29-18.95,28.9-2.69,5.24-5.19,10.89-7.56,16.98-.59,1.55-1.18,3.03-1.75,4.63-.57,1.57-1.13,3.23-1.69,4.84-1.11,3.22-2.17,6.73-3.19,10.22-2.33,8.16-3.84,16.57-4.12,25.21-.27,8.64,.69,17.43,3.33,26.05,1.32,4.31,3.06,8.57,5.27,12.75,2.2,4.18,4.88,8.3,8.03,12.16,3.15,3.87,6.82,7.68,10.96,11.09,2.07,1.72,4.27,3.4,6.6,5.01,2.31,1.58,4.75,3.07,7.31,4.5,10.22,5.69,22.4,10,35.96,12.18,13.53,2.18,28.46,2.29,43.77-.11,15.32-2.38,31.04-7.23,46.15-14.51,15.11-7.27,29.5-17.01,42.39-28.8,12.36-11.41,23.35-23.53,33-36.05,9.61-12.54,17.92-25.46,25-38.54,1.76-3.27,3.46-6.58,5.06-9.82,1.51-3.2,2.98-6.4,4.4-9.58,2.94-6.35,5.31-12.7,7.66-18.96,.57-1.57,1.17-3.13,1.7-4.69,.51-1.56,1.01-3.12,1.51-4.66,.99-3.1,1.94-6.18,2.86-9.24,.96-3.06,1.66-6.1,2.45-9.12,.76-3.02,1.48-6.01,2.17-8.99,5.25-23.78,7.03-45.9,6.76-65.96-.28-20.08-2.61-38.14-5.98-54.18-1.75-8-3.66-15.52-5.86-22.5-1.08-3.49-2.21-6.86-3.36-10.1-1.18-3.23-2.38-6.33-3.61-9.31-4.91-11.9-10.29-21.68-15.62-29.2-10.67-15.01-21.22-20.88-28.65-15.22-7.35,5.61-10.01,11.72-11.71,21.75l-.54,3.47Z"/>
      <path class="cls-10" d="M916.64,243.32c-12.43,8.7-27.46,23.63-43.56,41.54-8.1,8.88-16.4,18.6-24.95,28.39-4.2,4.99-8.59,9.84-12.83,14.89-4.38,4.87-8.61,9.95-12.99,14.78-1.78,2.01-3.17,3.69-4.26,5.02-1.11,1.31-1.87,2.33-2.32,3.1-.9,1.55-.57,2.11,.78,2,1.35-.11,3.71-.9,6.89-2.11,3.17-1.22,7.05-2.96,11.57-4.8,2.31-.93,4.71-1.9,7.16-2.88,2.49-1.01,5.09-2.01,7.79-2.98,2.7-.96,5.49-1.89,8.35-2.73,2.83-.87,5.71-1.66,8.63-2.3,5.85-1.3,11.84-2.06,17.74-1.86,5.87,.18,11.65,1.32,17.1,3.93,6.15,2.93,11.99,7.26,17.41,12.66,5.42,5.4,10.54,11.9,15.13,19.08,9.15,14.35,16.47,31.66,21.42,48.29,1.25,4.15,2.4,8.27,3.45,12.26,.96,3.99,1.84,7.87,2.63,11.56,.78,3.7,1.52,7.21,2.12,10.46,.57,3.28,1.1,6.27,1.55,8.91,1.88,10.67,3.18,15.97,5.01,11.38,8.61-21.03,14.07-41.48,17.35-60.67,3.27-19.21,4.44-37.21,4.17-53.81-.06-4.15-.27-8.2-.49-12.19-.13-1.99-.26-3.96-.39-5.91-.17-1.94-.36-3.86-.55-5.76-.4-3.8-.84-7.52-1.34-11.16-.54-3.62-1.13-7.16-1.76-10.61-2.51-13.82-5.91-26.22-9.69-37.21-7.63-21.95-16.87-38.28-25.61-48.12-8.75-9.82-17.07-13.07-23.24-8.37-7.35,5.61-10.01,11.72-11.71,21.75l-.54,3.47Z"/>
    </g>
    <path class="cls-9" d="M309.61,910.7s-116.55,118.6-172.19,89.58c-67.59-35.25,193.11-161.64,193.11-161.64,0,0,12.16,44.34,62.76,54.36,0,0-86.9,92.26-152.88,107.82-27.04,6.37-36.28-8.06-36.28-8.06"/>
    <path class="cls-2" d="M829.67,503.83c7.27-16.96,17.91-39.07,17.97-76.08,.08-46.38-12.54-76.01-21.61-93.35,.45-6.64,3.91-131.96-90.26-197.14-13.59-9.4-27.46-16.39-41.25-21.53,8.92-8.15,8.23-16.38,5.33-24.04-4.49-11.86-25.9-14.84-48.75-7.2,4.05-15.59-2.41-22.45-10.56-26.91-11.67-6.39-31.16,6.74-43.52,29.33-3.34,6.11-5.89,12.61-7.63,18.98-24.53,3.55-42.4,9.84-48.29,12.02-104.93,38.9-174.79,163.72-166.95,309.84-122.96,144.63-170.85,301.61-113.01,396.24,10.1,16.52,25.23,34.11,48.64,50.07,26.52,12.03,206.27,90.15,373.35,0,34.82-18.79,136.51-73.66,164.5-190.25,18.83-78.42-5.98-152.08-17.97-179.97Z"/>
    <path class="cls-3" d="M684.8,662.33c11.09,7.02,30.66-3.82,44.82-24.34,6.34,15.42,15.95,17.09,25.47,15.71,13.63-1.97,21.6-24.95,17.79-51.33-3.81-26.38-20.02-45.3-33.36-48.71-11.94-3.05-36.57,25.93-45.85,42.07-21.06,36.59-20.51,59.23-8.87,66.6Z"/>
    <path class="cls-5" d="M847.64,427.74c-1.57-46.35-12.54-76.01-21.61-93.35,.45-6.64,3.91-131.96-90.26-197.14-13.59-9.4-27.46-16.39-41.25-21.53,8.92-8.15,8.23-16.38,5.33-24.04-4.49-11.86-25.9-14.84-48.75-7.2,4.05-15.59-2.41-22.45-10.56-26.91-11.67-6.39-31.16,6.74-43.52,29.33-3.34,6.11-5.89,12.61-7.63,18.98-24.53,3.55-42.4,9.84-48.29,12.02-104.93,38.9-174.79,163.72-166.95,309.84,69.55,144.96,479.36,173.76,473.48,0Z"/>
    <path class="cls-3" d="M598.26,157.13c4.71,12.44,3.7,26.37-35.06,39.05-24.47,8-51.29,9.06-56.01-3.38-4.71-12.44,14.86-32.56,38.94-41.68,24.08-9.12,47.42-6.43,52.13,6.01Z"/>
    <path class="cls-3" d="M688.03,159.14c-4.17,11-3.29,23.31,30.84,34.46,21.55,7.04,45.17,7.94,49.34-3.06,4.17-11-13.05-28.75-34.25-36.78-21.2-8.03-41.76-5.62-45.93,5.38Z"/>
    <g>
      <path class="cls-9" d="M189.27,831.49c-2.5-83.86,103.76-337.78,235.67-324.72,75.8,7.51,107.28,133.39,47.2,212.78-115.89,153.14-295.84,173.17-295.84,135.89,0-9.22,3.33-14.77,10.45-21.63l2.51-2.33Z"/>
      <path class="cls-10" d="M189.27,831.49c-.91-30.5,12.57-83.51,36.44-137.98,19.63-44.8-7.45,47.38,34.05,76.47,46.75,32.77,160.73,6.56,148.97,16.47-108.42,91.4-232.43,99.95-232.43,69,0-9.22,3.33-14.77,10.45-21.63l2.51-2.33Z"/>
    </g>
    <g>
      <path class="cls-7" d="M621.43,387.98c12.17-16.2,18.48-40.43,18.11-72.11-.64-53.89-16.32-95.96-69.2-95.96-44.89,0-78.34,47.21-78.34,100.21,0,4.81,1.24,18.77,1.78,23.32,18.35,3.37,39.28,8.41,61.87,16.07,25.65,8.7,47.65,18.8,65.78,28.48Z"/>
      <path d="M579.97,263.74c-2.18,0-4.29,.43-6.32,1.16,2.88,3.21,4.69,7.41,4.69,12.06,0,10-8.11,18.12-18.12,18.12-2.27,0-4.41-.47-6.41-1.23-.6,3.36-.95,6.88-.95,10.53,0,22.44,12.14,40.64,27.11,40.64s27.11-18.19,27.11-40.64-12.14-40.64-27.11-40.64Z"/>
    </g>
    <g>
      <path class="cls-7" d="M706.91,387.98c11.22-10.29,26.6-22.37,46.49-33.13,14.19-7.67,27.52-12.97,38.98-16.67,3.56-11.76,4.93-25.12,3.61-39.44-4.31-46.76-35.45-85.89-72.08-82.51-43.15,3.98-46.97,41.21-43.1,88.79,2.71,33.41,12.39,70.2,26.1,82.97Z"/>
      <path d="M723.7,256.81c-1.75,0-3.44,.34-5.08,.93,2.32,2.58,3.77,5.95,3.77,9.68,0,8.03-6.51,14.54-14.54,14.54-1.82,0-3.54-.37-5.15-.98-.48,2.7-.76,5.52-.76,8.45,0,18.02,9.75,32.62,21.77,32.62s21.77-14.61,21.77-32.62-9.75-32.62-21.77-32.62Z"/>
    </g>
    <path class="cls-8" d="M653.62,408.08s-8.1,63.44,11.89,76.32c36.21,23.34,68.66-26.81,68.66-26.81l-80.55-49.51Z"/>
    <path class="cls-4" d="M655.57,417.99c-3.52-1.71-5.64-5.35-5.41-9.25,1.36-22.21,8.9-93.9,49.73-94.82,25.51-.57,71.57,44.44,72.29,91.65,.72,47.2-27.98,98.68-33.17,93.16-13.09-13.93-19.67-37.7-21.88-47.19-.61-2.61-2.34-4.81-4.75-5.98l-56.8-27.57Z"/>
    <path class="cls-6" d="M655.88,406.42c-.11-12.64,1.31-22.58,3.79-33.89,4.12-18.75,11.69-38.99,28.15-48.01,10.88-5.97,17.01-7.17,30.67-3.08,4.15,1.25,2.57-4.45-.67-7.24-17.8-15.32-44.71-5.42-58.43,15.13-11.3,16.92-16.03,38.29-18.06,59.54-.46,4.85-.83,9.76-.79,14.73,.08,9.43,15.42,12.26,15.34,2.82h0Z"/>
    <path class="cls-11" d="M742.99,362.23c-4.42,.86-3.97-2.48-16.61-10.71-12.64-8.23-24.35-9.76-18.95-14.67,2.99-2.71,12.46-3.87,25.1,4.36,12.64,8.23,13.69,20.39,10.47,21.02Z"/>
    <path class="cls-1" d="M523.72,942.55c-45.69-12.91-87.8-2.25-90.54,7.44-1.64,5.8,11.25,9.95,31.6,15.1,10.7,3.79,23.52,9.03,37.49,17.16,41.02,23.9,57.93,45.7,69.76,41.18,6.22-2.38,3.03-15.48-9.55-30.75,20.66,6.44,34.5,9.87,36.15,4.04,2.74-9.69-29.22-41.28-74.91-54.18Z"/>
    <path class="cls-1" d="M684.44,923.37c-45.69-12.91-87.8-2.25-90.54,7.44-1.64,5.8,11.25,9.95,31.6,15.1,10.7,3.79,23.52,9.03,37.49,17.16,41.02,23.9,57.93,45.7,69.76,41.18,6.22-2.38,3.03-15.48-9.55-30.75,20.66,6.44,34.5,9.87,36.15,4.04,2.74-9.69-29.22-41.28-74.91-54.18Z"/>
  </g>
</svg>