<svg width="48" height="49" viewBox="0 0 48 49" fill="none" xmlns="http://www.w3.org/2000/svg">
<path fill-rule="evenodd" clip-rule="evenodd" d="M24 44.5C35.0457 44.5 44 35.5457 44 24.5C44 13.4543 35.0457 4.5 24 4.5C12.9543 4.5 4 13.4543 4 24.5C4 35.5457 12.9543 44.5 24 44.5Z" stroke="white" stroke-width="5" stroke-linecap="round" stroke-linejoin="round"/>
<path d="M24 23.5C26.7614 23.5 29 21.2614 29 18.5C29 15.7386 26.7614 13.5 24 13.5C21.2386 13.5 19 15.7386 19 18.5C19 21.2614 21.2386 23.5 24 23.5Z" stroke="white" stroke-width="5" stroke-linejoin="round"/>
<path d="M10.0215 38.832C10.3652 33.6206 14.7011 29.5 19.9995 29.5H27.9995C33.2909 29.5 37.6224 33.6097 37.9762 38.8113" stroke="white" stroke-width="5" stroke-linecap="round" stroke-linejoin="round"/>
</svg>
